<svg width="83" height="34" viewBox="0 0 83 34" fill="none" xmlns="http://www.w3.org/2000/svg">
<path d="M6.61689 10.6348H0V33.5496H6.61689V10.6348Z" fill="#325D85"/>
<path d="M82.6864 10.6348H59.7715V17.2517H82.6864V10.6348Z" fill="#325D85"/>
<path d="M74.5563 10.6348H67.9395V33.5496H74.5563V10.6348Z" fill="#325D85"/>
<path d="M3.3422 6.68439C5.18804 6.68439 6.68439 5.18804 6.68439 3.3422C6.68439 1.49635 5.18804 0 3.3422 0C1.49635 0 0 1.49635 0 3.3422C0 5.18804 1.49635 6.68439 3.3422 6.68439Z" fill="#325D85"/>
<path d="M26.5566 33.5496H34.1785L49.2393 10.6348H41.6174L26.5566 33.5496Z" fill="#BCC3C6"/>
<path fill-rule="evenodd" clip-rule="evenodd" d="M46.9461 18.737L56.6777 33.5489H64.2988L50.7568 12.9391L46.9461 18.737ZM28.8617 25.4532L19.125 10.6348H11.5039L25.051 31.2511L28.8617 25.4532Z" fill="#325D85"/>
<path d="M29.7016 17.348C31.5474 17.348 33.0438 15.8516 33.0438 14.0058C33.0438 12.1599 31.5474 10.6636 29.7016 10.6636C27.8557 10.6636 26.3594 12.1599 26.3594 14.0058C26.3594 15.8516 27.8557 17.348 29.7016 17.348Z" fill="#BCC3C6"/>
<path d="M45.8891 33.5164C47.7349 33.5164 49.2313 32.0201 49.2313 30.1742C49.2313 28.3284 47.7349 26.832 45.8891 26.832C44.0432 26.832 42.5469 28.3284 42.5469 30.1742C42.5469 32.0201 44.0432 33.5164 45.8891 33.5164Z" fill="#BCC3C6"/>
</svg>
