<?xml version="1.0" standalone="no"?>
<!DOCTYPE svg PUBLIC "-//W3C//DTD SVG 1.1//EN" "http://www.w3.org/Graphics/SVG/1.1/DTD/svg11.dtd" >
<svg xmlns="http://www.w3.org/2000/svg">
<metadata>Generated by IcoMoon</metadata>
<defs>
<font id="icomoon" horiz-adv-x="1024">
<font-face units-per-em="1024" ascent="960" descent="-64" />
<missing-glyph horiz-adv-x="1024" />
<glyph unicode="&#x20;" horiz-adv-x="512" d="" />
<glyph unicode="&#xe900;" glyph-name="activity-log" d="M511.914 890.179c-84.323 0.012-166.892-24.081-237.977-69.437s-127.725-110.086-163.245-186.563h110.406c9.258 0 18.138-3.677 24.685-10.225s10.225-15.426 10.225-24.684c0-9.258-3.678-18.138-10.225-24.684s-15.427-10.225-24.685-10.225h-174.545c-12.345 0-24.184 4.904-32.913 13.633s-13.633 20.568-13.633 32.913v174.545c0 9.258 3.678 18.138 10.225 24.685s15.426 10.225 24.684 10.225c9.258 0 18.138-3.678 24.684-10.225s10.224-15.427 10.224-24.685v-78.988c45.126 77.191 109.684 141.215 187.249 185.697s165.427 67.87 254.84 67.836c282.813 0 512.093-229.236 512.093-512 0-282.762-229.28-511.997-512.093-511.997-278.528 0-505.111 222.342-511.907 499.197-0.228 9.259 3.231 18.228 9.616 24.937s15.174 10.605 24.432 10.833c9.258 0.228 18.228-3.23 24.937-9.615s10.605-15.174 10.833-24.433c2.89-115.327 50.737-224.957 133.331-305.501 82.594-80.538 193.395-125.613 308.758-125.6 244.272 0 442.275 197.958 442.275 442.179 0 244.224-198.003 442.182-442.275 442.182zM520.928 634.63c0 9.911-3.937 19.416-10.945 26.424s-16.514 10.945-26.425 10.945c-9.911 0-19.416-3.937-26.424-10.945s-10.945-16.513-10.945-26.424v-274.046c0-13.453 7.175-25.81 18.835-32.437l174.392-99.654c8.585-4.64 18.646-5.734 28.028-3.059 9.382 2.682 17.344 8.922 22.189 17.395 4.838 8.474 6.176 18.502 3.718 27.949-2.458 9.44-8.506 17.549-16.864 22.592l-155.558 88.889v252.371z" />
<glyph unicode="&#xe901;" glyph-name="angle-bottom" d="M0 689.873c0 8.62 3.147 17.297 9.386 23.889 12.48 13.24 32.746 13.24 45.226 0l442.287-467.253c8.32-8.73 21.867-8.73 30.187 0l442.289 467.253c12.48 13.24 32.742 13.24 45.222 0 12.538-13.184 12.538-34.595 0-47.779l-442.286-467.251c-16.106-17.075-37.546-26.426-60.319-26.426s-44.213 9.35-60.319 26.426l-442.288 467.251c-6.24 6.592-9.386 15.269-9.386 23.889z" />
<glyph unicode="&#xe902;" glyph-name="Arrow-1" d="M50.745 493.255c-24.994-24.994-24.994-65.516 0-90.51l407.293-407.295c24.994-24.992 65.516-24.992 90.51 0 24.993 24.998 24.993 65.517 0 90.509l-362.039 362.042 362.039 362.038c24.993 24.994 24.993 65.516 0 90.51s-65.516 24.994-90.51 0l-407.293-407.293zM992 512h-896v-128h896v128z" />
<glyph unicode="&#xe903;" glyph-name="Ball" d="M577.304 33.632c197.076 220.8 197.076 641.668 0 862.471 204.078-39.097 356.36-223.512 356.36-431.236 0-207.721-152.282-392.188-356.36-431.235zM494.577 32.365c-128.595 100.192-172.223 286.291-170.449 441.417 1.028 85.014 15.742 170.728 47.599 249.763 14.34 35.501 32.23 69.833 54.465 101.083 10.043 14.107 20.973 27.653 32.884 40.265 5.605 5.979 11.444 11.724 17.517 17.283 14.48 13.172 13.732 15.181 31.156 4.25 56.38-35.453 94.076-120.047 116.077-179.51 29.384-79.642 42.043-165.263 41.153-249.95-1.498-150.175-46.151-327.91-170.403-424.601zM55.491 464.867c0 207.677 152.278 392.139 356.358 431.236-197.121-220.803-197.121-641.671 0-862.471-204.081 39.046-356.358 223.558-356.358 431.235zM494.806 960c-205.902 0.093-394.988-132.519-465.522-325.856-72.916-199.83-6.166-429.229 161.293-559.834 155.641-121.446 374.575-138.029 546.568-41.011 182.451 103.002 282.458 315.628 244.294 521.81-42.784 231.406-251.354 404.797-486.634 404.891z" />
<glyph unicode="&#xe904;" glyph-name="Calendar" d="M672.648 204.993c0 34.979 28.389 63.368 63.368 63.368 34.973 0 63.362-28.389 63.362-63.368s-28.389-63.362-63.362-63.362c-34.979 0-63.368 28.383-63.368 63.362v0zM422.479 204.993c0 34.979 28.388 63.368 63.366 63.368 35.029 0 63.366-28.389 63.366-63.368s-28.337-63.362-63.366-63.362c-34.978 0-63.366 28.383-63.366 63.362v0zM172.354 204.993c0 34.979 28.337 63.368 63.366 63.368 34.978 0 63.366-28.389 63.366-63.368s-28.388-63.362-63.366-63.362c-35.029 0-63.366 28.383-63.366 63.362v0zM672.648 411.273c0 34.978 28.389 63.366 63.368 63.366 34.973 0 63.362-28.388 63.362-63.366 0-35.029-28.389-63.366-63.362-63.366-34.979 0-63.368 28.336-63.368 63.366v0zM422.479 411.273c0 34.978 28.388 63.366 63.366 63.366 35.029 0 63.366-28.388 63.366-63.366 0-35.029-28.337-63.366-63.366-63.366-34.978 0-63.366 28.336-63.366 63.366v0zM172.354 411.273c0 34.978 28.337 63.366 63.366 63.366 34.978 0 63.366-28.388 63.366-63.366 0-35.029-28.388-63.366-63.366-63.366-35.029 0-63.366 28.336-63.366 63.366v0zM910.914 657.524h-850.074v90.893c0 45.016 36.601 81.666 81.667 81.666h58.348v-34.978c0-16.78 13.637-30.416 30.466-30.416 16.78 0 30.416 13.636 30.416 30.416v34.978h448.329v-34.978c0-16.78 13.637-30.416 30.419-30.416 16.776 0 30.365 13.636 30.365 30.416v34.978h58.344c45.068 0 81.721-36.651 81.721-81.666v-90.893zM910.914 78.559c0-45.068-36.653-81.721-81.721-81.721h-686.686c-45.066 0-81.667 36.653-81.667 81.721v518.080h850.074v-518.080zM829.187 890.855h-58.35v38.729c0 16.83-13.583 30.416-30.365 30.416-16.776 0-30.413-13.586-30.413-30.416v-38.729h-448.331v38.729c0 16.83-13.637 30.416-30.416 30.416-16.83 0-30.466-13.586-30.466-30.416v-38.729h-58.348c-78.574 0-142.498-63.924-142.498-142.498v-669.81c0-78.625 63.924-142.547 142.498-142.547h686.689c78.625 0 142.499 63.922 142.499 142.547v669.81c0 78.574-63.874 142.498-142.499 142.498v0z" />
<glyph unicode="&#xe905;" glyph-name="Cart" d="M884.294 789.96c39.040 0 75.802-17.197 100.909-47.093 25.101-29.896 35.578-69.133 28.806-107.578l-66.214-325.747c-10.97-62.317-65.523-108.077-129.568-108.077h-418.009c-64.932 0-120.97 48.429-130.359 112.717l-125.516 521.883c-5.634 37.951-36.469 64.586-72.196 64.586h-42.498c-16.406 0-29.649 13.293-29.649 29.649 0 16.406 13.243 29.699 29.649 29.699h42.498c64.932 0 120.97-48.477 130.408-112.717l125.466-521.88c5.683-37.998 36.469-64.635 72.196-64.635h418.009c35.181 0 65.178 25.152 71.309 59.891l66.214 325.699c3.61 20.359-2.176 41.954-15.962 58.409-13.837 16.456-34.048 25.844-55.494 25.844h-408.026c-16.356 0-29.649 13.293-29.649 29.699 0 16.356 13.293 29.649 29.649 29.649h408.026zM402.376 133.658c-44.16 0-80-35.84-80-80s35.84-80 80-80c44.16 0 80 35.84 80 80s-35.84 80-80 80zM773.651 133.658c-44.16 0-80-35.84-80-80s35.84-80 80-80c44.16 0 80 35.84 80 80s-35.84 80-80 80z" />
<glyph unicode="&#xe906;" glyph-name="Chart" d="M224.499 280.608c8.161 0 16.374 3.149 22.614 9.389l238.519 238.519c8.374 8.374 21.921 8.374 30.242 0l82.084-82.084c32.162-32.215 88.429-32.215 120.647 0l218.944 218.998v-102.778c0-17.708 14.349-32.055 32-32.055 17.658 0 31.949 14.348 31.949 32.055v180.009c0 4.161-0.8 8.268-2.451 12.214-3.251 7.84-9.44 14.081-17.338 17.281-3.891 1.654-8 2.507-12.16 2.507h-180.006c-17.658 0-32-14.348-32-32.002 0-17.708 14.342-32.001 32-32.001h102.778l-218.944-218.945c-8.32-8.321-21.869-8.321-30.189 0l-82.084 82.084c-33.282 33.282-87.418 33.282-120.646 0l-238.572-238.572c-12.481-12.481-12.481-32.748 0-45.229 6.24-6.24 14.454-9.389 22.614-9.389zM1024 42.618c0-17.702-14.291-32-31.949-32h-906.714c-47.042 0-85.338 38.246-85.338 85.338v800.043c0 17.654 14.347 32.002 32.002 32.002s31.948-14.347 31.948-32.002v-800.043c0-11.789 9.601-21.331 21.388-21.331h906.714c17.658 0 31.949-14.349 31.949-32.006z" />
<glyph unicode="&#xe907;" glyph-name="Factory" d="M917.158 9.811c0-10.195-8.307-18.458-18.458-18.458h-367.676l-45.533 390.838 155.141 126.219c8.262 6.643 16.518 3.875 19.654 2.353s10.522-6.136 10.522-16.653v-105.552c0-10.657 6.131-20.39 15.776-25.004 9.594-4.568 20.992-3.229 29.338 3.506l171.155 138.813c8.115 6.551 16.422 3.783 19.514 2.307 3.181-1.476 10.566-6.136 10.566-16.654v-481.715zM73.847-8.627c-7.243 0-11.718 3.872-13.794 6.182-2.076 2.304-5.398 7.283-4.613 14.394l81.562 699.692c1.061 9.319 8.95 16.331 18.315 16.331h217.746c9.365 0 17.254-7.012 18.361-16.331l83.869-720.268h-401.446zM930.438 558.145c-25.882 12.317-55.866 8.812-78.24-9.273l-126.080-102.23v47.471c0 28.74-16.102 54.298-42.074 66.616-25.971 12.41-56.006 8.811-78.335-9.365l-127.788-103.983-31.555 270.66c-4.337 37.229-35.799 65.278-73.305 65.278h-84.515c-0.23 3.044-0.23 6.043-0.046 8.996 2.63 31.278 32.662 49.27 59.050 52.684 27.68 3.091 57.020-3.645 89.959-12.271l9.318-2.26c27.864-6.966 56.79-14.070 87.975-12.225 55.037 3.276 94.296 44.241 104.952 109.611 2.49 15.085-7.75 29.34-22.836 31.785-14.624 2.445-29.294-7.75-31.74-22.836-4.567-27.68-17.53-61.126-53.745-63.294-23.066-1.384-46.363 4.429-71.183 10.657l-9.226 2.26c-37.921 9.918-72.382 17.807-110.073 13.517-59.004-7.612-103.245-49.961-107.628-103.476-0.323-4.383-0.369-8.765-0.184-13.148h-77.826c-37.46 0-68.968-28.049-73.305-65.278l-81.516-699.692c-2.445-20.947 4.244-41.939 18.222-57.619 13.978-15.731 34.092-24.73 55.129-24.73h824.854c40.64 0 73.766 33.126 73.766 73.811v481.718c0 28.74-16.058 54.252-42.029 66.616z" />
<glyph unicode="&#xe908;" glyph-name="File-attach" d="M654.398 590.705c27.097-27.097 41.974-63.082 41.974-101.434 0-38.303-14.877-74.288-42.023-101.386l-181.76-181.711c-15.746-15.799-36.709-24.488-59.025-24.488h-0.048c-22.315 0-43.327 8.689-59.073 24.488-15.746 15.696-24.441 36.709-24.441 59.024-0.048 22.315 8.694 43.327 24.489 59.073l173.017 173.066c11.206 11.351 29.61 11.351 40.96 0 11.303-11.303 11.303-29.657 0-40.96l-173.017-173.017c-4.83-4.879-7.535-11.351-7.535-18.161s2.705-13.234 7.535-18.017c4.83-4.879 11.254-7.583 18.065-7.583h0.048c6.811 0 13.235 2.705 18.114 7.535l181.711 181.76c16.133 16.132 25.069 37.579 25.069 60.377 0 22.847-8.936 44.292-25.069 60.426-32.362 32.314-88.537 32.266-120.899 0l-160.555-160.555c-11.206-11.303-29.61-11.303-40.912 0-11.351 11.303-11.351 29.657 0 40.96l160.555 160.603c54.146 54.194 148.577 54.146 202.82 0v0zM845.926 110.051c0-63.905-52.022-115.975-115.974-115.975h-483.019c-63.903 0-115.924 52.070-115.924 115.975v676.225c0 63.903 52.021 115.925 115.924 115.925h333.379c17.775 0 35.212-7.245 47.819-19.804l197.987-197.99c12.705-12.751 19.807-29.754 19.807-47.819v-526.537zM867.079 725.253l-197.939 197.941c-23.765 23.716-55.258 36.806-88.779 36.806h-333.379c-95.879 0-173.839-78.008-173.839-173.887v-676.223c0-95.934 77.959-173.89 173.839-173.89h483.019c95.929 0 173.885 77.956 173.885 173.89v526.536c0 33.57-13.041 65.111-36.805 88.828v0z" />
<glyph unicode="&#xe909;" glyph-name="Filter" d="M916.908 707.094c0-5.348-2.090-10.392-5.855-14.212l-322.199-322.197c-15.383-15.333-23.789-35.759-23.789-57.408v-292.96l-152.159 90.726v202.234c0 21.649-8.405 42.074-23.738 57.408l-322.247 322.197c-3.77 3.82-5.858 8.864-5.858 14.212v171.567c0 11.105 9.068 20.172 20.172 20.172h815.5c11.107 0 20.173-9.067 20.173-20.172v-171.567zM896.753 960h-815.503c-44.827 0-81.25-36.422-81.25-81.25v-171.566c0-21.701 8.405-42.077 23.789-57.41l322.197-322.197c3.77-3.819 5.858-8.867 5.858-14.216v-219.6c0-10.746 5.654-20.733 14.875-26.287l213.236-127.199c4.788-2.801 10.239-4.277 15.638-4.277 5.247 0 10.392 1.325 15.079 3.976 9.626 5.451 15.486 15.583 15.486 26.588v346.799c0 5.349 2.090 10.397 5.855 14.216l322.199 322.197c15.384 15.333 23.787 35.709 23.787 57.41v171.566c0 44.827-36.418 81.25-81.245 81.25v0z" />
<glyph unicode="&#xe90a;" glyph-name="Frame-585" d="M511.946 341.939c-58.374 0-105.894 47.52-105.894 105.894s47.521 105.894 105.894 105.894c58.374 0 105.895-47.52 105.895-105.894s-47.521-105.894-105.895-105.894zM512.029 606.593c-87.583 0-158.842-71.258-158.842-158.842s71.258-158.842 158.842-158.842c87.583 0 158.844 71.258 158.844 158.842s-71.261 158.842-158.844 158.842zM968.429 439.037c-100.602-155.972-271.174-249.073-456.404-249.073-185.227 0-355.805 93.101-456.361 249.073-3.53 5.427-3.53 12.752 0 18.179 100.555 155.974 271.134 249.028 456.361 249.028 185.23 0 355.803-93.055 456.404-249.073 3.488-5.427 3.488-12.707 0-18.134zM1012.883 485.769c-110.31 171.152-297.613 273.34-500.883 273.34-203.274 0-390.53-102.188-500.881-273.34-14.825-22.944-14.825-52.595 0-75.582 110.351-171.108 297.607-273.297 500.881-273.297 203.27 0 390.573 102.189 500.883 273.297 14.822 22.943 14.822 52.638 0 75.582z" />
<glyph unicode="&#xe90b;" glyph-name="Group-1017" d="M512.023 82.389c19.396 0 37.997 7.705 51.713 21.421s21.42 32.316 21.42 51.713v731.335c0 19.396-7.705 37.998-21.42 51.713-13.716 13.715-32.317 21.42-51.713 21.42-19.397 0-37.998-7.705-51.713-21.42s-21.421-32.317-21.421-51.713v-731.335c0-19.397 7.705-37.998 21.421-51.713 13.715-13.716 32.316-21.421 51.713-21.421zM460.248-42.514c6.794-6.811 14.864-12.214 23.749-15.902 8.885-3.686 18.41-5.584 28.030-5.584s19.144 1.898 28.029 5.584c8.885 3.688 16.955 9.091 23.749 15.902l438.801 438.801c13.733 13.733 21.447 32.357 21.447 51.778s-7.714 38.046-21.447 51.779c-13.732 13.733-32.357 21.447-51.778 21.447s-38.046-7.714-51.779-21.447l-387.022-387.169-387.023 387.169c-6.799 6.799-14.872 12.194-23.756 15.873-8.884 3.681-18.406 5.574-28.022 5.574s-19.138-1.893-28.022-5.574c-8.884-3.68-16.957-9.074-23.756-15.873s-12.193-14.872-15.873-23.757c-3.68-8.884-5.574-18.406-5.574-28.022s1.894-19.137 5.574-28.022c3.68-8.884 9.074-16.956 15.873-23.756l438.801-438.801z" />
<glyph unicode="&#xe90c;" glyph-name="Group-1018" d="M512.023 813.611c19.396 0 37.997-7.705 51.713-21.421s21.42-32.316 21.42-51.713v-731.335c0-19.396-7.705-37.997-21.42-51.713-13.716-13.715-32.317-21.42-51.713-21.42-19.397 0-37.998 7.705-51.713 21.42-13.716 13.716-21.421 32.317-21.421 51.713v731.335c0 19.397 7.705 37.998 21.421 51.713 13.715 13.716 32.316 21.421 51.713 21.421v0zM460.248 938.514c6.794 6.811 14.864 12.214 23.749 15.901s18.41 5.585 28.030 5.585c9.619 0 19.144-1.898 28.029-5.585s16.955-9.090 23.749-15.901l438.801-438.801c13.733-13.733 21.447-32.357 21.447-51.778s-7.714-38.046-21.447-51.779c-13.732-13.733-32.357-21.447-51.778-21.447s-38.046 7.715-51.779 21.447l-387.022 387.169-387.023-387.169c-6.799-6.799-14.872-12.194-23.756-15.873s-18.406-5.574-28.022-5.574c-9.616 0-19.138 1.894-28.022 5.574s-16.957 9.074-23.756 15.873c-6.8 6.799-12.193 14.872-15.873 23.757s-5.574 18.406-5.574 28.022c0 9.615 1.894 19.137 5.574 28.022s9.074 16.956 15.873 23.756l438.801 438.801z" />
<glyph unicode="&#xe90d;" glyph-name="Group-1019" d="M605.776 141.227l-67.35-67.3v289.872c0 15.138-12.175 27.312-27.313 27.312s-27.36-12.174-27.36-27.312v-289.872l-67.304 67.3c-10.716 10.672-27.998 10.672-38.668 0-10.67-10.667-10.67-27.995 0-38.713l113.952-113.994c2.554-2.509 5.563-4.471 8.892-5.928 3.375-1.371 6.931-2.054 10.488-2.054s7.113 0.683 10.442 2.054c3.375 1.456 6.384 3.419 8.937 5.928l113.952 113.994c10.672 10.718 10.672 28.046 0 38.713-10.718 10.672-27.995 10.672-38.667 0zM995.095 444.686c0-122.706-99.812-222.523-222.475-222.523h-54.42c-15.093 0-27.312 12.22-27.312 27.358s12.22 27.364 27.312 27.364h54.465c92.473 0.046 167.76 75.281 167.76 167.802 0 84.13-62.743 155.538-145.874 166.072-7.566 0.957-14.404 5.016-18.876 11.217-4.42 6.201-6.064 13.999-4.511 21.432 3.282 15.64 4.784 30.46 4.784 45.234 0 119.469-97.172 216.595-216.594 216.595-103.145 0-192.427-73.186-212.218-174.051-2.69-13.588-14.728-23.757-28.864-21.979-6.201 0.411-12.312 0.866-18.513 0.866-119.47 0-216.641-97.171-216.641-216.595 0-119.421 97.126-216.548 216.55-216.593h5.718c15.093 0 27.313-12.225 27.313-27.364s-12.22-27.358-27.313-27.358h-5.582c-149.656 0-271.359 121.702-271.359 271.314 0 149.337 121.293 270.903 270.585 271.314 33.105 114.408 139.122 195.209 260.324 195.209 149.613 0 271.361-121.749 271.361-271.359 0-9.622-0.546-19.197-1.599-28.91 96.353-25.034 165.979-112.949 165.979-215.045z" />
<glyph unicode="&#xe90e;" glyph-name="icon" d="M32 427.763c8.487 0 16.626-3.296 22.628-9.162s9.372-13.824 9.372-22.121v-218.983c0-16.593 6.743-32.507 18.745-44.241s28.281-18.325 45.255-18.325h768c16.975 0 33.252 6.591 45.256 18.325 11.999 11.734 18.744 27.648 18.744 44.241v218.983c0 8.297 3.37 16.254 9.374 22.121 6 5.867 14.141 9.162 22.626 9.162s16.626-3.296 22.626-9.162c6.004-5.867 9.374-13.824 9.374-22.121v-218.983c0-33.187-13.484-65.015-37.492-88.483-24.003-23.468-56.562-36.65-90.508-36.65h-768c-33.948 0-66.505 13.182-90.51 36.65s-37.49 55.296-37.49 88.483v218.983c0 8.297 3.371 16.254 9.373 22.121s14.141 9.162 22.627 9.162zM320 624.598c6.001-5.865 14.139-9.16 22.624-9.16s16.623 3.295 22.624 9.16l146.752 143.528 146.753-143.465c2.951-2.988 6.484-5.371 10.384-7.011 3.905-1.639 8.104-2.502 12.353-2.539s8.462 0.755 12.395 2.328c3.933 1.573 7.508 3.896 10.51 6.833 3.007 2.937 5.381 6.43 6.991 10.275s2.42 7.964 2.383 12.118c-0.037 4.154-0.922 8.259-2.597 12.075-1.68 3.817-4.115 7.269-7.173 10.154l-169.342 165.551c-2.974 2.913-6.507 5.225-10.394 6.802s-8.057 2.389-12.265 2.389c-4.208 0-8.378-0.812-12.265-2.389s-7.419-3.888-10.389-6.802l-169.346-165.551c-2.98-2.906-5.344-6.358-6.958-10.159s-2.444-7.875-2.444-11.99c0-4.115 0.83-8.189 2.444-11.99s3.978-7.253 6.958-10.159zM512 803.162c8.485 0 16.626-3.296 22.626-9.163 6.004-5.867 9.374-13.824 9.374-22.121v-500.533c0-8.294-3.37-16.254-9.374-22.118-6-5.869-14.141-9.165-22.626-9.165s-16.626 3.295-22.626 9.165c-6.004 5.865-9.374 13.824-9.374 22.118v500.533c0 8.297 3.37 16.254 9.374 22.121 6 5.867 14.141 9.163 22.626 9.163z" />
<glyph unicode="&#xe90f;" glyph-name="Pencil" d="M879.541 664.884l-65.789-65.787-157.699 157.699 65.784 65.787c25.75 25.75 67.659 25.75 93.409 0l64.294-64.292c25.791-25.75 25.791-67.656 0-93.407v0zM306.557 91.914l-184.030-26.337 26.289 184.033 472.016 471.973 157.701-157.74-471.977-471.929zM914.842 793.551l-64.335 64.292c-45.186 45.187-118.743 45.187-163.929 0l-578.878-578.878c-3.821-3.823-6.229-8.765-7.018-14.077l-32.146-225.15c-1.163-7.769 1.495-15.572 7.060-21.142 4.693-4.69 11.006-7.305 17.568-7.305 1.204 0 2.367 0.082 3.53 0.287l225.147 32.147c5.317 0.751 10.258 3.243 14.080 7.018l578.92 578.88c45.145 45.187 45.145 118.741 0 163.928v0zM813.752 599.097l-12.070-12.067 12.070-12.068 12.070 12.068-12.070 12.067zM656.054 756.795l-12.067 12.067-12.068-12.067 12.068-12.068 12.067 12.068zM721.838 822.583v0zM815.247 822.583v0zM879.541 758.29l-12.070-12.068 0.007-0.010 12.063 12.078zM306.557 91.914l2.417-16.896 5.629 0.806 4.022 4.021-12.067 12.070zM122.527 65.577l-16.895 2.417-3.219-22.535 22.531 3.229-2.417 16.889zM148.817 249.61l-12.067 12.070-4.023-4.028-0.804-5.632 16.895-2.41zM620.832 721.583l12.070 12.066-12.067 12.071-12.070-12.069 12.067-12.068zM778.534 563.843l12.063-12.068 12.070 12.066-12.063 12.069-12.070-12.067zM850.507 857.843v0zM686.578 857.843v0zM107.7 278.965v0zM100.682 264.888l-16.882 2.505-0.013-0.096 16.895-2.41zM68.536 39.738l16.879-2.526 0.016 0.116-16.895 2.41zM96.694 11.578l-2.414 16.91-0.586-0.109 3-16.8zM321.841 43.725l-2.376 16.903-0.035-0.007 2.412-16.896zM335.921 50.743l12.002-12.131 0.066 0.061-12.067 12.070zM914.842 629.623v0zM867.471 676.952l-65.789-65.787 24.139-24.136 65.789 65.787-24.139 24.136zM825.822 611.165l-157.7 157.698-24.136-24.136 157.697-157.698 24.139 24.136zM668.122 744.727l65.786 65.787-24.132 24.136-65.789-65.788 24.136-24.136zM733.908 810.514c19.087 19.085 50.19 19.085 69.27 0l24.139 24.136c-32.42 32.414-85.129 32.414-117.542 0l24.132-24.136zM803.178 810.514l64.294-64.292 24.139 24.136-64.294 64.292-24.139-24.136zM867.478 746.213c19.115-19.083 19.115-50.168 0-69.251l24.119-24.155c32.468 32.418 32.468 85.145 0 117.562l-24.119-24.155zM304.14 108.803l-184.030-26.33 4.835-33.785 184.030 26.33-4.835 33.785zM139.422 63.167l26.29 184.026-33.79 4.826-26.29-184.026 33.79-4.826zM160.884 237.541l472.016 471.974-24.135 24.137-472.016-471.972 24.135-24.139zM608.763 709.517l157.701-157.74 24.139 24.133-157.701 157.74-24.139-24.133zM766.464 575.912l-471.975-471.935 24.135-24.132 471.972 471.93-24.132 24.137zM926.904 805.622l-64.335 64.292-24.125-24.144 64.335-64.291 24.125 24.143zM862.577 869.911c-51.855 51.852-136.212 51.852-188.066 0l24.137-24.136c38.523 38.522 101.267 38.522 139.79 0l24.139 24.136zM674.511 869.911l-578.878-578.878 24.136-24.137 578.879 578.879-24.137 24.136zM95.633 291.032c-6.515-6.514-10.529-14.853-11.833-23.639l33.763-5.018c0.274 1.85 1.077 3.393 2.205 4.519l-24.136 24.137zM83.786 267.298l-32.146-225.15 33.791-4.82 32.146 225.143-33.791 4.826zM51.657 42.264c-1.985-13.257 2.579-26.44 11.871-35.731l24.136 24.132c-1.838 1.836-2.591 4.267-2.25 6.547l-33.757 5.052zM63.528 6.533c7.872-7.878 18.518-12.308 29.636-12.308v34.133c-2.006 0-3.986 0.792-5.5 2.307l-24.136-24.132zM93.164-5.775c1.997 0 4.187 0.137 6.53 0.553l-6.001 33.601c0.017 0.007-0.118-0.020-0.53-0.020v-34.133zM99.107-5.318l225.147 32.147-4.824 33.792-225.147-32.147 4.824-33.792zM324.218 26.822c9.044 1.277 17.337 5.489 23.704 11.79l-24.003 24.269c-1.275-1.263-2.867-2.034-4.454-2.253l4.753-33.806zM347.989 38.673l578.922 578.881-24.139 24.137-578.918-578.879 24.135-24.139zM926.911 617.56c51.808 51.851 51.808 136.202 0 188.053l-24.146-24.125c38.489-38.524 38.489-101.28 0-139.803l24.146-24.125z" />
<glyph unicode="&#xe910;" glyph-name="Printer" d="M837.368 441.266c0-14.559-11.798-26.309-26.355-26.309h-124.804c-14.519 0-26.36 11.75-26.36 26.309s11.841 26.311 26.36 26.311h124.804c14.557 0 26.355-11.752 26.355-26.311v0zM930.951 197.621c0-39.203-31.97-71.13-71.173-71.13h-119.851v71.13c0 14.514-11.798 26.355-26.311 26.355h-389.807c-14.515 0-26.356-11.841-26.356-26.355v-71.13h-119.805c-39.205 0-71.173 31.927-71.173 71.13v292.365c0 39.248 31.969 71.129 71.173 71.129h682.13c39.203 0 71.173-31.881 71.173-71.129v-292.365zM687.26 100.223v-71.173h-337.096v142.261h337.096v-71.087zM252.679 831.074c0 12.322 10.042 22.408 22.409 22.408h487.248c12.369 0 22.409-10.086 22.409-22.408v-217.291h-532.066v217.291zM859.777 613.783h-22.409v217.29c0 41.397-33.679 75.032-75.032 75.032h-487.248c-41.397 0-75.032-33.635-75.032-75.032v-217.29h-22.409c-68.279 0-123.753-55.561-123.753-123.796v-292.365c0-68.193 55.474-123.753 123.753-123.753h119.805v-71.13c0-14.557 11.841-26.311 26.356-26.311h389.807c14.514 0 26.311 11.754 26.311 26.311v71.13h119.851c68.236 0 123.753 55.56 123.753 123.753v292.365c0 68.235-55.517 123.796-123.753 123.796v0zM739.926 126.491h-13.474v-13.474h13.474v13.474zM297.453 126.491v-13.474h13.474v13.474h-13.474zM687.26 29.049v-13.474h13.474v13.474h-13.474zM350.164 29.049h-13.474v-13.474h13.474v13.474zM350.164 171.31v13.474h-13.474v-13.474h13.474zM687.26 171.31h13.474v13.474h-13.474v-13.474zM784.745 613.783v-13.474h13.474v13.474h-13.474zM252.679 613.783h-13.474v-13.474h13.474v13.474zM837.368 613.783h-13.474v-13.474h13.474v13.474zM200.056 613.783v-13.474h13.474v13.474h-13.474zM297.453 73.868h13.474v13.474h-13.474v-13.474zM739.926 73.868v13.474h-13.474v-13.474h13.474zM823.894 441.266c0-7.089-5.734-12.838-12.881-12.838v-26.945c21.967 0 39.828 17.753 39.828 39.783h-26.947zM811.013 428.428h-124.804v-26.945h124.804v26.945zM686.209 428.428c-7.119 0-12.886 5.764-12.886 12.838h-26.947c0-22.046 17.92-39.783 39.834-39.783v26.945zM673.323 441.266c0 7.074 5.767 12.838 12.886 12.838v26.947c-21.914 0-39.834-17.741-39.834-39.785h26.947zM686.209 454.104h124.804v26.947h-124.804v-26.947zM811.013 454.104c7.146 0 12.881-5.749 12.881-12.838h26.947c0 22.029-17.861 39.785-39.828 39.785v-26.947zM917.477 197.621c0-31.755-25.929-57.657-57.7-57.657v-26.947c46.635 0 84.647 37.947 84.647 84.604h-26.947zM859.777 139.965h-119.851v-26.947h119.851v26.947zM753.4 126.491v71.13h-26.947v-71.13h26.947zM753.4 197.621c0 21.924-17.801 39.828-39.785 39.828v-26.947c7.044 0 12.838-5.778 12.838-12.881h26.947zM713.615 237.449h-389.807v-26.947h389.807v26.947zM323.808 237.449c-21.957 0-39.829-17.871-39.829-39.828h26.947c0 7.071 5.808 12.881 12.882 12.881v26.947zM283.979 197.621v-71.13h26.947v71.13h-26.947zM297.453 139.965h-119.805v-26.947h119.805v26.947zM177.647 139.965c-31.774 0-57.7 25.902-57.7 57.657h-26.947c0-46.657 38.012-84.604 84.647-84.604v26.947zM119.948 197.621v292.365h-26.947v-292.365h26.947zM119.948 489.987c0 31.79 25.92 57.656 57.7 57.656v26.947c-46.63 0-84.647-37.897-84.647-84.603h26.947zM177.647 547.642h682.13v26.947h-682.13v-26.947zM859.777 547.642c31.776 0 57.7-25.865 57.7-57.656h26.947c0 46.706-38.017 84.603-84.647 84.603v-26.947zM917.477 489.987v-292.365h26.947v292.365h-26.947zM673.787 100.223v-71.173h26.947v71.173h-26.947zM687.26 42.523h-337.096v-26.947h337.096v26.947zM363.637 29.049v71.173h-26.947v-71.173h26.947zM363.637 100.223v71.087h-26.947v-71.087h26.947zM350.164 157.836h337.096v26.947h-337.096v-26.947zM673.787 171.31v-71.087h26.947v71.087h-26.947zM266.153 831.074c0 4.898 4.027 8.935 8.935 8.935v26.947c-19.825 0-35.883-16.136-35.883-35.882h26.947zM275.088 840.008h487.248v26.947h-487.248v-26.947zM762.336 840.008c4.91 0 8.936-4.036 8.936-8.935h26.947c0 19.746-16.061 35.882-35.883 35.882v-26.947zM771.271 831.074v-217.291h26.947v217.291h-26.947zM784.745 627.257h-532.066v-26.947h532.066v26.947zM266.153 613.783v217.291h-26.947v-217.291h26.947zM859.777 627.257h-22.409v-26.947h22.409v26.947zM850.842 613.783v217.29h-26.947v-217.29h26.947zM850.842 831.073c0 48.844-39.715 88.506-88.506 88.506v-26.947c33.916 0 61.559-27.608 61.559-61.559h26.947zM762.336 919.579h-487.248v-26.947h487.248v26.947zM275.088 919.579c-48.838 0-88.505-39.668-88.505-88.506h26.947c0 33.956 27.602 61.559 61.558 61.559v26.947zM186.583 831.073v-217.29h26.947v217.29h-26.947zM200.056 627.257h-22.409v-26.947h22.409v26.947zM177.647 627.257c-75.73 0-137.226-61.603-137.226-137.27h26.947c0 60.803 49.451 110.323 110.279 110.323v26.947zM40.421 489.987v-292.365h26.947v292.365h-26.947zM40.421 197.621c0-75.625 61.5-137.227 137.226-137.227v26.947c-60.832 0-110.279 49.524-110.279 110.279h-26.947zM177.647 60.394h119.805v26.947h-119.805v-26.947zM283.979 73.868v-71.13h26.947v71.13h-26.947zM283.979 2.738c0-22.043 17.917-39.785 39.829-39.785v26.947c-7.118 0-12.882 5.767-12.882 12.838h-26.947zM323.808-37.047h389.807v26.947h-389.807v-26.947zM713.615-37.047c21.941 0 39.785 17.769 39.785 39.785h-26.947c0-7.103-5.751-12.838-12.838-12.838v-26.947zM753.4 2.738v71.13h-26.947v-71.13h26.947zM739.926 60.394h119.851v26.947h-119.851v-26.947zM859.777 60.394c75.679 0 137.227 61.596 137.227 137.227h-26.947c0-60.756-49.492-110.279-110.279-110.279v-26.947zM997.004 197.621v292.365h-26.947v-292.365h26.947zM997.004 489.987c0 75.67-61.548 137.27-137.227 137.27v-26.947c60.788 0 110.279-49.523 110.279-110.323h26.947z" />
<glyph unicode="&#xe911;" glyph-name="search" d="M436.984 144.301c-208.998 0-379.016 169.971-379.016 378.87 0 208.901 170.018 378.871 379.016 378.871 208.994 0 379.016-169.97 379.016-378.871 0-208.899-170.022-378.87-379.016-378.87zM1015.52-14.515l-165.19 165.126c-47.725 47.712-48.064 123.757-18.918 184.625 27.27 56.947 42.541 120.684 42.541 187.932 0 240.876-196 436.832-436.975 436.832-240.924 0-436.977-195.956-436.977-436.832s196.052-436.832 436.977-436.832c67.197 0 130.895 15.251 187.824 42.47 60.787 29.056 136.684 28.666 184.339-18.97l165.376-165.312c5.651-5.651 13.088-8.499 20.48-8.499 7.437 0 14.829 2.848 20.525 8.499 11.302 11.302 11.302 29.658 0 40.96z" />
<glyph unicode="&#xe912;" glyph-name="Settings" d="M492.788 317.856c-85.59 0-155.132 66.987-155.132 149.367 0 82.328 69.542 149.315 155.132 149.315s155.135-66.986 155.135-149.315c0-82.38-69.545-149.367-155.135-149.367zM492.789 678.948c-121.307 0-220.028-94.966-220.028-211.724 0-116.809 98.721-211.774 220.028-211.774s220.030 94.965 220.030 211.774c0 116.758-98.723 211.724-220.030 211.724zM918.419 316.352l-76.896-128.41c-4.915-8.218-15.776-11.13-24.314-6.342l-53.114 29.434c-27.072 15.027-60.678 14.304-85.645-1.926-13.939-9.050-28.858-17.107-44.147-23.872-28.152-12.48-46.415-40.512-46.415-71.456v-59.757c0-9.466-8.051-17.165-17.831-17.165h-153.998c-9.834 0-17.831 7.699-17.831 17.165v59.706c0 30.995-18.264 59.078-46.577 71.558-15.562 6.816-30.584 14.88-44.632 23.981-12.968 8.371-28.26 12.531-43.768 12.531-14.319 0-28.801-3.59-41.769-10.765l-53.062-29.434c-8.483-4.685-19.452-1.824-24.369 6.291l-76.891 128.461c-4.863 8.163-1.945 18.72 6.593 23.401l45.767 25.432c28.205 15.706 44.2 45.923 40.687 77.023-1.35 11.338-1.837 22.831-1.837 34.637 0 17.423 1.188 32.193 3.728 45.195s-3.728 26.16-15.67 32.817l-72.676 40.306c-8.484 4.733-11.456 15.238-6.538 23.456l76.783 128.251c2.323 3.953 6.214 6.813 10.753 7.957 4.701 1.3 9.51 0.625 13.617-1.716l38.527-21.48c27.612-15.55 62.895-13.21 89.805 5.669 16.264 11.494 33.772 21.479 51.981 29.748 30.529 13.834 49.549 41.763 49.549 72.811v40.514c0 9.517 7.997 17.163 17.831 17.163h153.998c9.78 0 17.831-7.645 17.831-17.163v-40.618c0-30.945 18.912-58.821 49.388-72.707 18.045-8.217 35.338-18.203 51.6-29.697 26.963-18.931 62.144-21.271 89.754-5.773l38.579 21.532c4.109 2.34 8.864 3.016 13.619 1.716 4.538-1.144 8.429-4.004 10.752-7.957l76.781-128.303c4.922-8.165 1.946-18.671-6.534-23.404l-72.678-40.306c-11.942-6.657-18.208-19.815-15.667-32.817 2.534-13.002 3.725-27.772 3.725-45.195 0-11.806-0.486-23.3-1.888-34.689-3.462-31.049 12.531-61.265 40.742-76.972l45.818-25.432c8.486-4.681 11.405-15.238 6.541-23.401zM944.243 393.791l-45.658 25.432c-6.106 3.38-9.51 9.725-8.755 16.174 1.568 13.574 2.323 27.304 2.323 41.45 0 12.326-0.538 23.716-1.728 34.429l53.766 29.8c39.501 21.948 53.114 70.678 30.368 108.644l-76.73 128.251c-11.078 18.463-28.909 31.673-50.304 37.186-21.453 5.513-43.718 2.652-62.842-8.061l-38.637-21.583c-6.432-3.64-13.888-1.248-18.803 2.184-19.558 13.782-40.474 25.848-62.195 35.729-5.946 2.756-12.32 8.477-12.32 16.331v40.618c0 43.894-37.121 79.624-82.671 79.624h-153.998c-45.604 0-82.672-35.729-82.672-79.624v-40.515c0-7.957-6.376-13.678-12.374-16.382-21.884-9.986-42.957-21.999-62.517-35.729-4.972-3.433-12.59-5.773-19.020-2.184l-38.58 21.531c-19.128 10.714-41.498 13.522-62.842 8.061-21.397-5.513-39.229-18.723-50.306-37.186l-76.728-128.199c-22.748-38.018-9.132-86.749 30.367-108.696l53.764-29.8c-1.188-10.714-1.729-22.104-1.729-34.429 0-14.146 0.756-27.876 2.324-41.45 0.756-6.449-2.648-12.794-8.754-16.174l-45.659-25.38c-39.445-21.896-53.062-70.627-30.313-108.646l76.837-128.454c22.803-37.971 73.325-51.072 112.932-29.229l52.954 29.434c5.836 3.174 12.698 3.328 17.129 0.518 16.966-10.97 35.068-20.698 53.818-28.966 5.187-2.291 8.7-8.218 8.7-14.771v-59.706c0-43.891 37.068-79.622 82.672-79.622h153.998c45.551 0 82.671 35.731 82.671 79.622v59.757c0 6.502 3.405 12.429 8.698 14.72 18.483 8.218 36.422 17.946 53.229 28.864 4.538 2.912 11.398 2.758 17.178-0.416l53.011-29.434c39.552-21.901 90.074-8.685 112.877 29.28l76.838 128.403c22.746 38.020 9.133 86.751-30.317 108.594z" />
<glyph unicode="&#xe913;" glyph-name="Subtract" d="M512-64c282.77 0 512 229.23 512 512s-229.23 512-512 512c-282.77 0-512-229.23-512-512s229.23-512 512-512zM549.237 410.763v-182.192h-74.474v182.192h-182.192v74.474h182.192v182.192h74.474v-182.192h182.192v-74.474h-182.192z" />
<glyph unicode="&#xe914;" glyph-name="Subtract-1" d="M425.115-64h173.769v425.115h425.115v173.769h-425.115v425.115h-173.769v-425.115h-425.115v-173.769h425.115v-425.115z" />
<glyph unicode="&#xe915;" glyph-name="Union" d="M621.411 846.217c0-62.841-50.942-113.782-113.782-113.782s-113.783 50.942-113.783 113.782c0 62.841 50.942 113.783 113.783 113.783s113.782-50.942 113.782-113.783zM621.411 447.926c0-62.841-50.942-113.783-113.782-113.783s-113.783 50.942-113.783 113.783c0 62.841 50.942 113.782 113.783 113.782s113.782-50.942 113.782-113.782zM507.629-63.984c62.841 0 113.782 50.948 113.782 113.782 0 62.842-50.942 113.782-113.782 113.782s-113.783-50.94-113.783-113.782c0-62.834 50.942-113.782 113.783-113.782z" />
<glyph unicode="&#xe916;" glyph-name="Upload" d="M640.377 343.803l-109.782 109.739c-2.416 2.459-5.357 4.391-8.56 5.708-6.414 2.635-13.661 2.635-20.112 0-3.207-1.317-6.149-3.249-8.564-5.708l-109.783-109.739c-10.275-10.273-10.275-27.006 0-37.325 10.32-10.277 26.962-10.277 37.238 0l64.86 64.861v-279.156c0-14.578 11.767-26.349 26.303-26.349s26.349 11.771 26.349 26.349v279.156l64.815-64.861c5.181-5.139 11.902-7.685 18.618-7.685 6.721 0 13.48 2.546 18.618 7.685 10.277 10.319 10.277 27.052 0 37.325zM977.455 300.833c0-118.128-96.126-214.295-214.295-214.295l-0.13 0.042h-55.301c-14.536 0-26.303 11.771-26.303 26.349s11.767 26.303 26.303 26.303h55.431c89.102 0.047 161.643 72.546 161.643 161.601 0 81.018-60.425 149.786-140.521 159.973-7.289 0.922-13.833 4.787-18.092 10.759s-5.883 13.438-4.389 20.639c3.072 15.194 4.608 29.466 4.608 43.606 0 115.008-93.622 208.586-208.631 208.586-99.373 0-185.31-70.48-204.369-167.615-2.591-13.042-13.876-21.956-27.753-21.21-5.928 0.395-11.9 0.878-17.829 0.878-115.008 0-208.63-93.578-208.63-208.628 0-114.967 93.578-208.5 208.498-208.589h8.531c14.535 0 26.348-11.725 26.348-26.303s-11.813-26.349-26.348-26.349h-8.312l-0.044-0.042c-144.122 0-261.326 117.201-261.326 261.283 0 143.857 116.808 260.928 260.535 261.323 31.925 110.178 133.935 187.947 250.697 187.947 144.081 0 261.283-117.203 261.283-261.282 0-9.222-0.438-18.487-1.494-27.885 92.788-24.064 159.888-108.772 159.888-207.092zM640.377 343.803v0zM530.595 453.543l-8.299-8.154 0.074-0.075 8.225 8.23zM501.923 459.251l-4.399 10.774-0.028-0.011 4.426-10.763zM493.359 453.543l8.225-8.23 0.079 0.076-8.304 8.154zM383.576 343.803v0zM383.576 306.479l-8.246-8.211 0.035-0.037 8.211 8.248zM420.814 306.479v0zM485.674 371.34h11.636v28.091l-19.866-19.865 8.229-8.226zM538.326 371.34l8.229 8.223-19.866 19.881v-28.104h11.636zM603.141 306.479l-8.229-8.225 0.037-0.037 8.192 8.262zM640.377 306.479l8.229-8.229 0.019 0.019-8.248 8.211zM763.159 86.537l-3.677-11.041 1.792-0.596h1.885v11.636zM763.029 86.579l3.677 11.041-1.792 0.596h-1.885v-11.636zM763.159 139.231v-11.636h0.005l-0.005 11.636zM784.282 460.806l1.466 11.543-0.005 0.001-1.462-11.544zM761.8 492.204l11.394-2.362 0.009 0.055-11.404 2.307zM353.408 576.78l11.413-2.267 0.006 0.027-11.419 2.241zM325.656 555.57l-0.774-11.612 0.149-0.008 0.625 11.62zM307.695 139.231l-0.009-11.636h0.009v11.636zM307.915 86.579v11.636h-4.82l-3.409-3.407 8.228-8.229zM307.871 86.537v-11.636h4.82l3.408 3.407-8.228 8.229zM307.080 609.144l0.032-11.636 8.718 0.024 2.426 8.374-11.177 3.238zM817.566 507.924l-11.562 1.297-1.126-10.028 9.77-2.533 2.918 11.264zM648.606 352.033l-109.782 109.74-16.454-16.459 109.782-109.739 16.454 16.458zM538.899 461.696c-3.584 3.649-7.866 6.439-12.442 8.318l-8.848-21.526c1.839-0.755 3.44-1.829 4.687-3.099l16.603 16.307zM526.457 470.014c-9.253 3.803-19.67 3.792-28.933 0.011l8.792-21.547c3.649 1.489 7.727 1.477 11.292 0.011l8.848 21.526zM497.496 470.014c-4.571-1.88-8.858-4.669-12.442-8.318l16.607-16.307c1.247 1.27 2.844 2.344 4.682 3.099l-8.848 21.526zM485.134 461.772l-109.784-109.74 16.453-16.458 109.781 109.739-16.449 16.459zM375.348 352.033c-14.829-14.829-14.804-38.917-0.017-53.765l16.491 16.421c-5.764 5.79-5.739 15.165-0.017 20.885l-16.457 16.458zM375.365 298.231c14.85-14.783 38.847-14.811 53.677 0.019l-16.457 16.458c-5.721-5.725-15.010-5.748-20.799 0.014l-16.421-16.491zM429.043 298.249l64.861 64.861-16.458 16.455-64.859-64.858 16.457-16.458zM474.038 371.34v-279.156h23.273v279.156h-23.273zM474.038 92.183c0-20.992 16.966-37.986 37.939-37.986v23.273c-8.094 0-14.666 6.549-14.666 14.713h-23.273zM511.977 54.198c20.95 0 37.986 16.966 37.986 37.986h-23.273c0-8.141-6.591-14.713-14.713-14.713v-23.273zM549.962 92.183v279.156h-23.273v-279.156h23.273zM530.092 363.11l64.819-64.856 16.458 16.449-64.815 64.86-16.463-16.452zM594.949 298.217c7.438-7.377 17.138-11.059 26.81-11.059v23.273c-3.766 0-7.503 1.415-10.426 4.31l-16.384-16.524zM621.759 287.158c9.644 0 19.414 3.663 26.847 11.092l-16.454 16.458c-2.844-2.844-6.6-4.278-10.394-4.278v-23.273zM648.625 298.268c14.787 14.848 14.811 38.935-0.019 53.765l-16.454-16.458c5.72-5.72 5.744-15.095-0.019-20.885l16.491-16.421zM965.818 300.833c0-111.7-90.917-202.659-202.659-202.659v-23.273c124.598 0 225.932 101.381 225.932 225.932h-23.273zM766.836 97.578l-0.13 0.042-7.359-22.081 0.135-0.042 7.354 22.081zM763.029 98.216h-55.301v-23.273h55.301v23.273zM707.728 98.216c-8.094 0-14.666 6.549-14.666 14.713h-23.273c0-20.992 16.966-37.986 37.939-37.986v23.273zM693.062 112.929c0 8.141 6.544 14.666 14.666 14.666v23.273c-20.95 0-37.939-16.919-37.939-37.939h23.273zM707.728 127.595h55.431v23.273h-55.431v-23.273zM763.164 127.595c95.516 0.047 173.275 77.75 173.275 173.238h-23.273c0-82.623-67.328-149.923-150.011-149.965l0.009-23.273zM936.439 300.833c0 86.849-64.754 160.586-150.691 171.517l-2.932-23.087c74.254-9.445 130.351-73.245 130.351-148.43h23.273zM785.743 472.35c-4.115 0.521-7.736 2.682-10.082 5.971l-18.944-13.514c6.172-8.656 15.639-14.222 26.103-15.546l2.923 23.088zM775.661 478.322c-2.406 3.379-3.291 7.547-2.467 11.52l-22.789 4.724c-2.164-10.431 0.2-21.193 6.312-29.758l18.944 13.514zM773.204 489.896c3.207 15.859 4.841 30.907 4.841 45.913h-23.273c0-13.274-1.438-26.769-4.38-41.298l22.812-4.615zM778.045 535.809c0 121.438-98.835 220.222-220.267 220.222v-23.273c108.586 0 196.994-88.372 196.994-196.95h23.273zM557.777 756.032c-104.903 0-195.652-74.385-215.788-177.011l22.838-4.481c17.981 91.645 99.107 158.22 192.95 158.22v23.273zM341.996 579.047c-1.45-7.299-7.552-12.297-15.715-11.858l-1.25-23.239c19.59-1.054 36.060 11.776 39.791 30.562l-22.826 4.534zM326.43 567.181c-5.684 0.379-12.179 0.904-18.603 0.904v-23.273c5.432 0 10.882-0.441 17.055-0.852l1.548 23.221zM307.827 568.084c-121.433 0-220.266-98.786-220.266-220.264h23.273c0 108.622 88.411 196.992 196.993 196.992v23.273zM87.561 347.82c0-121.395 98.789-220.132 220.126-220.225l0.018 23.273c-108.504 0.084-196.871 88.418-196.871 196.952h-23.273zM307.695 127.595h0.088v23.273h-0.088v-23.273zM307.783 127.595h8.443v23.273h-8.443v-23.273zM316.227 127.595c8.147 0 14.712-6.554 14.712-14.666h23.273c0 21.043-17.060 37.939-37.984 37.939v-23.273zM330.938 112.929c0-8.141-6.59-14.713-14.712-14.713v-23.273c20.949 0 37.984 16.966 37.984 37.986h-23.273zM316.227 98.216h-8.312v-23.273h8.312v23.273zM299.687 94.808l-0.044-0.042 16.456-16.458 0.044 0.047-16.457 16.454zM307.871 98.174c-137.697 0-249.689 111.993-249.689 249.647h-23.273c0-150.509 122.415-272.919 272.962-272.919v23.273zM58.182 347.82c0 137.443 111.618 249.31 248.931 249.687l-0.064 23.273c-150.142-0.413-272.14-122.69-272.14-272.96h23.273zM318.257 605.905c30.49 105.226 127.961 179.549 239.52 179.549v23.273c-121.966 0-228.514-81.217-261.874-196.345l22.353-6.477zM557.777 785.455c137.654 0 249.647-111.993 249.647-249.645h23.273c0 150.505-122.415 272.918-272.919 272.918v-23.273zM807.424 535.809c0-8.851-0.419-17.679-1.42-26.588l23.128-2.594c1.108 9.886 1.564 19.589 1.564 29.182h-23.273zM814.648 496.661c87.706-22.746 151.17-102.861 151.17-195.828h23.273c0 103.672-70.73 192.973-168.602 218.356l-5.841-22.528z" />
<glyph unicode="&#xe917;" glyph-name="User" d="M894.752 55.52c-12.429-15.866-31.827-25.325-51.898-25.325h-720.668c-20.070 0-39.471 9.459-51.896 25.325-11.707 14.912-15.721 32.928-11.373 50.752 48.121 195.162 222.303 331.494 423.627 331.494 201.277 0 375.459-136.333 423.581-331.494 4.346-17.824 0.333-35.84-11.373-50.752zM278.828 698.848c0 112.346 91.416 203.809 203.809 203.809 112.346 0 203.763-91.463 203.763-203.809 0-112.394-91.417-203.761-203.763-203.761-112.394 0-203.809 91.368-203.809 203.761zM961.901 119.962c-43.194 175.283-176.237 308.557-343.105 356.153 74.881 45.971 124.961 128.593 124.961 222.732 0 143.981-117.123 261.153-261.104 261.153-144.028 0-261.153-117.172-261.153-261.153 0-94.139 50.081-176.762 124.962-222.732-166.87-47.596-299.908-180.87-343.107-356.153-8.554-34.739-0.573-71.155 21.934-99.776 23.511-30.106 58.921-47.309 97.007-47.309h720.668c38.086 0 73.498 17.203 97.005 47.309 22.509 28.621 30.49 65.037 21.933 99.776z" />
<glyph unicode="&#xe91b;" glyph-name="Vector" d="M511.917 890.182c-84.323 0.011-166.892-24.081-237.977-69.437s-127.725-110.086-163.245-186.563h110.406c9.259 0 18.138-3.678 24.685-10.225s10.225-15.426 10.225-24.684c0-9.259-3.678-18.138-10.225-24.685s-15.426-10.225-24.685-10.225h-174.545c-12.345 0-24.184 4.904-32.913 13.633s-13.633 20.568-13.633 32.913v174.546c0 9.258 3.678 18.138 10.225 24.684s15.426 10.225 24.684 10.225c9.258 0 18.138-3.678 24.684-10.225s10.225-15.426 10.225-24.684v-78.988c45.125 77.192 109.684 141.215 187.248 185.698s165.427 67.87 254.84 67.835c282.809 0 512.095-229.236 512.095-512s-229.286-512-512.095-512c-278.528 0-505.111 222.349-511.907 499.2-0.228 9.258 3.231 18.228 9.616 24.936s15.174 10.605 24.432 10.834c9.258 0.228 18.228-3.231 24.937-9.616s10.605-15.174 10.834-24.432c2.89-115.327 50.737-224.961 133.331-305.498 82.594-80.544 193.395-125.619 308.758-125.606 244.268 0 442.278 197.958 442.278 442.182s-198.010 442.182-442.278 442.182zM520.932 634.633c0 9.911-3.937 19.416-10.945 26.424s-16.513 10.945-26.425 10.945c-9.911 0-19.416-3.937-26.424-10.945s-10.945-16.513-10.945-26.424v-274.046c0-13.453 7.175-25.81 18.835-32.437l174.393-99.651c8.587-4.64 18.641-5.741 28.024-3.059 9.382 2.675 17.35 8.922 22.189 17.389 4.845 8.474 6.176 18.502 3.725 27.949-2.458 9.446-8.512 17.555-16.864 22.592l-155.561 88.892v252.372z" />
<glyph unicode="&#xe91c;" glyph-name="Vector-1" d="M945.818 703.018c-0.134 0.254-0.243 0.518-0.384 0.767-0.186 0.32-0.397 0.612-0.589 0.927-5.85 9.738-14.112 17.798-24 23.396l-395.273 223.415c-9.9 5.557-21.062 8.476-32.415 8.476s-22.515-2.919-32.415-8.476l-395.28-223.42c-10.181-5.763-18.644-14.134-24.516-24.253-0.056-0.094-0.118-0.17-0.165-0.259-0.094-0.16-0.155-0.329-0.24-0.484-5.587-9.869-8.529-21.015-8.541-32.356v-445.459c0.012-11.661 3.117-23.117 8.996-33.19s14.325-18.413 24.475-24.16l395.276-223.418c8.751-4.883 18.507-7.706 28.516-8.23 1.196-0.179 2.401-0.275 3.609-0.294h0.292c1.284 0.013 2.565 0.109 3.835 0.294 10.031 0.518 19.808 3.334 28.578 8.23l395.281 223.418c10.144 5.747 18.592 14.086 24.467 24.16s8.979 21.53 8.992 33.19v445.459c-0.013 11.306-2.944 22.419-8.499 32.266zM488.524 902.364c1.415 0.794 3.011 1.211 4.633 1.211s3.218-0.417 4.633-1.211l371.157-209.788-144.742-82.768-378.798 211.661 143.117 80.895zM497.992 480.454l-380.128 212.404 169.992 96.090 379.135-211.849-168.999-96.644zM93.258 217.094c-1.452 0.826-2.66 2.016-3.502 3.456s-1.286 3.078-1.288 4.742v419.304l381.276-213.044-4.385-424.775-372.1 210.317zM893.062 217.094l-371.227-209.824 4.381 424.278 169.924 97.158v-177.201c0-7.489 2.97-14.67 8.269-19.965 5.293-5.295 12.474-8.269 19.962-8.269s14.669 2.975 19.968 8.269c5.293 5.295 8.269 12.476 8.269 19.965v209.496l145.235 83.045v-418.753c0-1.664-0.448-3.302-1.286-4.736-0.838-1.44-2.042-2.637-3.494-3.462z" />
</font>
</defs>
</svg>
