<svg width="16" height="16" viewBox="0 0 16 16" fill="none" xmlns="http://www.w3.org/2000/svg">
<path d="M13.8171 2.65687C14.4271 2.65687 15.0015 2.92557 15.3938 3.3927C15.786 3.85983 15.9497 4.4729 15.8439 5.07361L14.8093 10.1634C14.6379 11.1371 13.7855 11.8521 12.7848 11.8521H6.25341C5.23884 11.8521 4.36326 11.0954 4.21655 10.0909L2.25537 1.93648C2.16734 1.34349 1.68554 0.927318 1.1273 0.927318H0.463273C0.206929 0.927318 0 0.719617 0 0.464045C0 0.207701 0.206929 0 0.463273 0H1.1273C2.14186 0 3.01745 0.757451 3.16493 1.76121L5.12534 9.91558C5.21414 10.5093 5.69517 10.9255 6.25341 10.9255H12.7848C13.3345 10.9255 13.8032 10.5325 13.899 9.9897L14.9336 4.90065C14.99 4.58254 14.8996 4.24512 14.6842 3.98801C14.468 3.73089 14.1522 3.58419 13.8171 3.58419H7.4417C7.18613 3.58419 6.97843 3.37649 6.97843 3.12014C6.97843 2.86457 7.18613 2.65687 7.4417 2.65687H13.8171Z" fill="#232323"/>
<path d="M6.28712 12.9116C5.59712 12.9116 5.03712 13.4716 5.03712 14.1616C5.03712 14.8516 5.59712 15.4116 6.28712 15.4116C6.97712 15.4116 7.53712 14.8516 7.53712 14.1616C7.53712 13.4716 6.97712 12.9116 6.28712 12.9116Z" fill="#232323"/>
<path d="M12.0883 12.9116C11.3983 12.9116 10.8383 13.4716 10.8383 14.1616C10.8383 14.8516 11.3983 15.4116 12.0883 15.4116C12.7783 15.4116 13.3383 14.8516 13.3383 14.1616C13.3383 13.4716 12.7783 12.9116 12.0883 12.9116Z" fill="#232323"/>
</svg>
