<svg width="16" height="16" viewBox="0 0 16 16" fill="none" xmlns="http://www.w3.org/2000/svg">
<path d="M7.99871 1.09091C6.68117 1.09074 5.39103 1.46718 4.28032 2.17586C3.16961 2.88455 2.28462 3.89596 1.72962 5.09091H3.45471C3.59938 5.09091 3.73811 5.14838 3.84041 5.25067C3.9427 5.35296 4.00017 5.4917 4.00017 5.63636C4.00017 5.78103 3.9427 5.91977 3.84041 6.02206C3.73811 6.12435 3.59938 6.18182 3.45471 6.18182H0.727439C0.534554 6.18182 0.349569 6.1052 0.213179 5.96881C0.0767892 5.83242 0.000166113 5.64743 0.000166113 5.45455V2.72727C0.000166116 2.58261 0.0576335 2.44387 0.159926 2.34158C0.262219 2.23929 0.400957 2.18182 0.545621 2.18182C0.690284 2.18182 0.829023 2.23929 0.931315 2.34158C1.03361 2.44387 1.09108 2.58261 1.09108 2.72727V3.96146C1.79616 2.75534 2.80489 1.75497 4.01683 1.05993C5.22876 0.364902 6.60162 -0.000537805 7.99871 5.94054e-07C12.4176 5.94054e-07 16.0002 3.58182 16.0002 8C16.0002 12.4182 12.4176 16 7.99871 16C3.64671 16 0.106348 12.5258 0.000166113 8.2C-0.00340225 8.05534 0.0506429 7.91518 0.150412 7.81037C0.250182 7.70555 0.387503 7.64466 0.532166 7.64109C0.67683 7.63752 0.816986 7.69157 0.921802 7.79134C1.02662 7.89111 1.08751 8.02843 1.09108 8.17309C1.13623 9.97508 1.88384 11.6881 3.17437 12.9465C4.4649 14.205 6.19616 14.9093 7.99871 14.9091C11.8154 14.9091 14.9093 11.816 14.9093 8C14.9093 4.184 11.8154 1.09091 7.99871 1.09091Z" fill="#232323"/>
<path d="M8.13956 5.08386C8.13956 4.929 8.07804 4.78049 7.96854 4.67098C7.85903 4.56148 7.71052 4.49996 7.55565 4.49996C7.40079 4.49996 7.25227 4.56148 7.14277 4.67098C7.03327 4.78049 6.97175 4.929 6.97175 5.08386V9.36583C6.97175 9.57604 7.08386 9.76911 7.26604 9.87266L9.99093 11.4297C10.1251 11.5022 10.2822 11.5194 10.4288 11.4775C10.5754 11.4357 10.6999 11.3381 10.7755 11.2058C10.8512 11.0734 10.872 10.9167 10.8337 10.7691C10.7953 10.6215 10.7007 10.4948 10.5702 10.4161L8.13956 9.02717V5.08386Z" fill="#232323"/>
</svg>
