<svg width="16" height="16" viewBox="0 0 16 16" fill="none" xmlns="http://www.w3.org/2000/svg">
<path fill-rule="evenodd" clip-rule="evenodd" d="M7.69981 10.0335C6.36246 10.0335 5.27587 8.98683 5.27587 7.69964C5.27587 6.41326 6.36246 5.3666 7.69981 5.3666C9.03716 5.3666 10.1238 6.41326 10.1238 7.69964C10.1238 8.98683 9.03716 10.0335 7.69981 10.0335ZM7.69983 4.39144C5.80441 4.39144 4.2619 5.87529 4.2619 7.69963C4.2619 9.52477 5.80441 11.0086 7.69983 11.0086C9.59525 11.0086 11.1378 9.52477 11.1378 7.69963C11.1378 5.87529 9.59525 4.39144 7.69983 4.39144ZM14.3503 10.057L13.1488 12.0634C13.072 12.1918 12.9023 12.2373 12.7689 12.1625L11.939 11.7026C11.516 11.4678 10.9909 11.4791 10.6008 11.7327C10.383 11.8741 10.1499 12 9.91101 12.1057C9.47114 12.3007 9.18577 12.7387 9.18577 13.2222V14.1559C9.18577 14.3038 9.05998 14.4241 8.90716 14.4241H6.50094C6.34728 14.4241 6.22233 14.3038 6.22233 14.1559V13.223C6.22233 12.7387 5.93696 12.2999 5.49456 12.1049C5.2514 11.9984 5.01669 11.8724 4.79718 11.7302C4.59455 11.5994 4.35562 11.5344 4.11331 11.5344C3.88957 11.5344 3.6633 11.5905 3.46067 11.7026L2.63158 12.1625C2.49903 12.2357 2.32764 12.191 2.25081 12.0642L1.04939 10.057C0.973407 9.92946 1.019 9.7645 1.1524 9.69136L1.86751 9.29399C2.30822 9.04858 2.55813 8.57645 2.50325 8.0905C2.48215 7.91335 2.47455 7.73376 2.47455 7.54929C2.47455 7.27706 2.49312 7.04628 2.5328 6.84312C2.57248 6.63997 2.47455 6.43437 2.28796 6.33036L1.1524 5.70058C1.01984 5.62663 0.973407 5.46248 1.05024 5.33408L2.24997 3.33016C2.28627 3.2684 2.34706 3.2237 2.41798 3.20583C2.49143 3.18551 2.56657 3.19607 2.63074 3.23264L3.23272 3.56826C3.66415 3.81123 4.21546 3.77466 4.63592 3.47968C4.89005 3.30009 5.1636 3.14407 5.44812 3.01486C5.92514 2.7987 6.22233 2.36232 6.22233 1.87719V1.24416C6.22233 1.09545 6.34728 0.975991 6.50094 0.975991H8.90716C9.05998 0.975991 9.18577 1.09545 9.18577 1.24416V1.87881C9.18577 2.36232 9.48127 2.79789 9.95745 3.01486C10.2394 3.14325 10.5096 3.29928 10.7637 3.47887C11.185 3.77466 11.7347 3.81123 12.1661 3.56907L12.7689 3.23264C12.8331 3.19607 12.9074 3.18551 12.9817 3.20583C13.0526 3.2237 13.1134 3.2684 13.1497 3.33016L14.3494 5.3349C14.4263 5.46248 14.3798 5.62663 14.2473 5.70058L13.1117 6.33036C12.9251 6.43437 12.8272 6.63997 12.8669 6.84312C12.9065 7.04628 12.9251 7.27706 12.9251 7.54929C12.9251 7.73376 12.9175 7.91335 12.8956 8.09131C12.8415 8.57645 13.0914 9.04858 13.5322 9.29399L14.2481 9.69136C14.3807 9.7645 14.4263 9.92946 14.3503 10.057ZM14.7538 8.84702L14.0404 8.44964C13.945 8.39682 13.8918 8.29768 13.9036 8.19692C13.9281 7.98482 13.9399 7.77029 13.9399 7.54926C13.9399 7.35667 13.9315 7.1787 13.9129 7.0113L14.753 6.54567C15.3702 6.20274 15.5829 5.44132 15.2275 4.8481L14.0286 2.84418C13.8555 2.5557 13.5769 2.34929 13.2426 2.26315C12.9074 2.17701 12.5595 2.22171 12.2607 2.38911L11.657 2.72635C11.5565 2.78323 11.44 2.74585 11.3632 2.69222C11.0576 2.47687 10.7308 2.28834 10.3914 2.13395C10.2985 2.09088 10.1989 2.00149 10.1989 1.87878V1.24412C10.1989 0.558271 9.61889 0 8.90716 0H6.50094C5.78837 0 5.20919 0.558271 5.20919 1.24412V1.87716C5.20919 2.00149 5.10956 2.09088 5.01584 2.13313C4.67391 2.28916 4.34464 2.47687 4.03901 2.6914C3.96133 2.74504 3.84229 2.78161 3.74182 2.72553L3.139 2.38911C2.84012 2.22171 2.49059 2.17783 2.15709 2.26315C1.82276 2.34929 1.54414 2.5557 1.37106 2.84418L0.172178 4.84729C-0.183266 5.44132 0.0294937 6.20274 0.646666 6.54567L1.48673 7.0113C1.46816 7.1787 1.45971 7.35667 1.45971 7.54926C1.45971 7.77029 1.47153 7.98482 1.49602 8.19692C1.50784 8.29768 1.45465 8.39682 1.35924 8.44964L0.645822 8.8462C0.0294937 9.18832 -0.183266 9.94974 0.172178 10.5438L1.37275 12.5509C1.72904 13.1442 2.51845 13.3489 3.13731 13.0076L3.96471 12.5477C4.05589 12.4981 4.16312 12.4957 4.23235 12.5396C4.49745 12.711 4.78029 12.863 5.07326 12.9922C5.15431 13.028 5.20919 13.1206 5.20919 13.223V14.1559C5.20919 14.8417 5.78837 15.4 6.50094 15.4H8.90716C9.61889 15.4 10.1989 14.8417 10.1989 14.1559V13.2222C10.1989 13.1206 10.2521 13.028 10.3348 12.9922C10.6236 12.8638 10.9039 12.7118 11.1665 12.5412C11.2374 12.4957 11.3446 12.4981 11.4349 12.5477L12.2632 13.0076C12.8812 13.3498 13.6706 13.1433 14.0269 12.5501L15.2275 10.5438C15.5829 9.94974 15.3702 9.18832 14.7538 8.84702Z" fill="#232323"/>
</svg>
